<?xml version="1.0" encoding="UTF-8"?>
<level>
  <owner>Fistachka</owner>
  <repo>kabynebylo-2-web</repo>
  <version>v1.0.11</version>
  <next number="1" owner="Fistachka" repo="kabynebylo-3"/>
  <readme>
    <ru>bedacd13434e2242b6c83694bd98b76851d20dc423a17af5e2e9a6b115f4458a</ru>
    <en>57cfbb569aea676b18b228d5dab9dd3dd0c6759f3febba9ed020a8d73af42c5a</en>
  </readme>
  <license>b1b99f5538d1fd3702219bff50c665196dfa42f6ee755c37fe41a6178d6bc6e5</license>
  <exercise number="1">
    <scale>minor</scale>
    <bpm>132</bpm>
    <lowestNote>5</lowestNote>
    <tonalities>12</tonalities>
    <video name="11t.mp4" size="603104" type="video/mp4" volume="0.509">8a1bb0deb33dd6c237df9b88a94326b09a0048d98ca6a2022fa636e59a6ff3ed</video>
    <notes>
      <note number="1" values="5" ticks="150" durationTicks="71" ppq="192" velocity="0.681"/>
      <note number="2" values="5" ticks="242" durationTicks="58" ppq="192" velocity="0.803"/>
      <note number="3" values="58" ticks="353" durationTicks="136" ppq="192" velocity="0.689"/>
      <note number="4" values="28" ticks="452" durationTicks="93" ppq="192" velocity="0.784"/>
      <note number="5" values="48" ticks="565" durationTicks="91" ppq="192" velocity="0.671"/>
      <note number="6" values="38" ticks="668" durationTicks="66" ppq="192" velocity="0.819"/>
      <note number="7" values="18" ticks="778" durationTicks="140" ppq="192" velocity="0.719"/>
    </notes>
  </exercise>
  <exercise number="2">
    <scale>minor</scale>
    <bpm>132</bpm>
    <lowestNote>7</lowestNote>
    <tonalities>12</tonalities>
    <video name="12t.mp4" size="489919" type="video/mp4" volume="0.5">8c065938c5a7c9ef48904a6309a453eba0517c9c2ea81d1a09a97168850dd952</video>
    <notes>
      <note number="1" values="7" ticks="53" durationTicks="70" ppq="192" velocity="0.982"/>
      <note number="2" values="7" ticks="152" durationTicks="88" ppq="192" velocity="0.992"/>
      <note number="3" values="78" ticks="256" durationTicks="98" ppq="192" velocity="0.864"/>
      <note number="4" values="68" ticks="370" durationTicks="85" ppq="192" velocity="0.879"/>
      <note number="5" values="68" ticks="465" durationTicks="121" ppq="192" velocity="0.922"/>
      <note number="6" values="58" ticks="576" durationTicks="145" ppq="192" velocity="0.894"/>
    </notes>
  </exercise>
  <exercise number="3">
    <scale>minor</scale>
    <bpm>132</bpm>
    <lowestNote>18</lowestNote>
    <tonalities>12</tonalities>
    <video name="13t.mp4" size="601489" type="video/mp4" volume="0.5">34087343b3d3db77550273cf4b3d6e51b0c343ff60c74573b46bb2c0fbe76327</video>
    <notes>
      <note number="1" values="188" ticks="52" durationTicks="131" ppq="192" velocity="0.952"/>
      <note number="2" values="68" ticks="224" durationTicks="78" ppq="192" velocity="0.957"/>
      <note number="3" values="48" ticks="321" durationTicks="106" ppq="192" velocity="0.842"/>
      <note number="4" values="28" ticks="419" durationTicks="94" ppq="192" velocity="0.922"/>
      <note number="5" values="68" ticks="517" durationTicks="98" ppq="192" velocity="0.884"/>
      <note number="6" values="58" ticks="612" durationTicks="93" ppq="192" velocity="0.832"/>
      <note number="7" values="58" ticks="708" durationTicks="130" ppq="192" velocity="0.912"/>
    </notes>
  </exercise>
  <exercise number="4">
    <scale>minor</scale>
    <bpm>132</bpm>
    <lowestNote>5</lowestNote>
    <tonalities>12</tonalities>
    <video name="14t.mp4" size="690006" type="video/mp4" volume="0.5">56a79a53c63f240d03eba399b0ce97ecf0ef52939e59293dd1a86ca9f5034ac2</video>
    <notes>
      <note number="1" values="5" ticks="77" durationTicks="70" ppq="192" velocity="0.976"/>
      <note number="2" values="5" ticks="176" durationTicks="88" ppq="192" velocity="0.984"/>
      <note number="3" values="58" ticks="280" durationTicks="98" ppq="192" velocity="0.858"/>
      <note number="4" values="48" ticks="369" durationTicks="84" ppq="192" velocity="0.874"/>
      <note number="5" values="48" ticks="486" durationTicks="79" ppq="192" velocity="0.921"/>
      <note number="6" values="38" ticks="577" durationTicks="145" ppq="192" velocity="0.89"/>
    </notes>
  </exercise>
  <exercise number="5">
    <scale>minor</scale>
    <bpm>132</bpm>
    <lowestNote>5</lowestNote>
    <tonalities>12</tonalities>
    <video name="15t.mp4" size="673137" type="video/mp4" volume="0.5">e035d4084dcbbf73d7bf55d274bd6e7e7f8f5e2065bc0b0477a2cf4159bee1b1</video>
    <notes>
      <note number="1" values="5" ticks="40" durationTicks="71" ppq="192" velocity="0.677"/>
      <note number="2" values="5" ticks="132" durationTicks="58" ppq="192" velocity="0.795"/>
      <note number="3" values="58" ticks="243" durationTicks="118" ppq="192" velocity="0.685"/>
      <note number="4" values="28" ticks="342" durationTicks="93" ppq="192" velocity="0.78"/>
      <note number="5" values="48" ticks="455" durationTicks="91" ppq="192" velocity="0.669"/>
      <note number="6" values="38" ticks="561" durationTicks="91" ppq="192" velocity="0.8"/>
      <note number="7" values="18" ticks="648" durationTicks="162" ppq="192" velocity="0.8"/>
    </notes>
  </exercise>
  <exercise number="6">
    <scale>minor</scale>
    <bpm>132</bpm>
    <lowestNote>7</lowestNote>
    <tonalities>12</tonalities>
    <video name="16t.mp4" size="585929" type="video/mp4" volume="0.5">be49f4fd868745ee51d797e6004e3a534af8488a5c7abcd0ec7e51a23b4b1a94</video>
    <notes>
      <note number="1" values="7" ticks="51" durationTicks="70" ppq="192" velocity="0.972"/>
      <note number="2" values="7" ticks="153" durationTicks="88" ppq="192" velocity="0.904"/>
      <note number="3" values="78" ticks="264" durationTicks="130" ppq="192" velocity="0.858"/>
      <note number="4" values="68" ticks="374" durationTicks="75" ppq="192" velocity="0.874"/>
      <note number="5" values="68" ticks="469" durationTicks="97" ppq="192" velocity="0.921"/>
      <note number="6" values="58" ticks="563" durationTicks="145" ppq="192" velocity="0.89"/>
    </notes>
  </exercise>
  <exercise number="7">
    <scale>minor</scale>
    <bpm>132</bpm>
    <lowestNote>18</lowestNote>
    <tonalities>12</tonalities>
    <video name="17t.mp4" size="641008" type="video/mp4" volume="0.5">95816fb4f6ba85de4598d8355d7fcfd22bd19279a956e92e674b606b855b52f4</video>
    <notes>
      <note number="1" values="188" ticks="83" durationTicks="71" ppq="192" velocity="0.677"/>
      <note number="2" values="68" ticks="228" durationTicks="87" ppq="192" velocity="0.795"/>
      <note number="3" values="48" ticks="323" durationTicks="92" ppq="192" velocity="0.685"/>
      <note number="4" values="28" ticks="422" durationTicks="93" ppq="192" velocity="0.78"/>
      <note number="5" values="68" ticks="515" durationTicks="91" ppq="192" velocity="0.669"/>
      <note number="6" values="58" ticks="612" durationTicks="85" ppq="192" velocity="0.8"/>
      <note number="7" values="58" ticks="707" durationTicks="127" ppq="192" velocity="0.8"/>
    </notes>
  </exercise>
  <exercise number="8">
    <scale>minor</scale>
    <bpm>132</bpm>
    <lowestNote>5</lowestNote>
    <tonalities>12</tonalities>
    <video name="18t.mp4" size="642129" type="video/mp4" volume="0.5">7237b5328498433e2445e9d257d86b54f7074cea99acb96001436938ac7028ae</video>
    <notes>
      <note number="1" values="5" ticks="46" durationTicks="69" ppq="192" velocity="0.904"/>
      <note number="2" values="5" ticks="139" durationTicks="91" ppq="192" velocity="0.984"/>
      <note number="3" values="58" ticks="237" durationTicks="86" ppq="192" velocity="0.919"/>
      <note number="4" values="48" ticks="324" durationTicks="63" ppq="192" velocity="0.894"/>
      <note number="5" values="48" ticks="419" durationTicks="91" ppq="192" velocity="0.906"/>
      <note number="6" values="38" ticks="516" durationTicks="81" ppq="192" velocity="0.836"/>
    </notes>
  </exercise>
  <exercise number="9">
    <scale>minor</scale>
    <bpm>132</bpm>
    <lowestNote>18</lowestNote>
    <tonalities>12</tonalities>
    <video name="19t.mp4" size="738269" type="video/mp4" volume="0.5">59aaf735d64212b05f44d78eb59c51a9e86dbd98a3371b7b719a7449e9638c92</video>
    <notes>
      <note number="1" values="188" ticks="67" durationTicks="128" ppq="192" velocity="0.669"/>
      <note number="2" values="68" ticks="242" durationTicks="87" ppq="192" velocity="0.787"/>
      <note number="3" values="48" ticks="337" durationTicks="92" ppq="192" velocity="0.677"/>
      <note number="4" values="28" ticks="436" durationTicks="93" ppq="192" velocity="0.78"/>
      <note number="5" values="68" ticks="529" durationTicks="91" ppq="192" velocity="0.661"/>
      <note number="6" values="58" ticks="626" durationTicks="85" ppq="192" velocity="0.795"/>
      <note number="7" values="58" ticks="721" durationTicks="127" ppq="192" velocity="0.795"/>
    </notes>
  </exercise>
  <exercise number="10">
    <scale>minor</scale>
    <bpm>132</bpm>
    <lowestNote>5</lowestNote>
    <tonalities>12</tonalities>
    <video name="20t.mp4" size="634151" type="video/mp4" volume="0.5">8e8607f33b4a052f2db3017aad50a36f25adbc9551d1162238d6efee2b6aa27c</video>
    <notes>
      <note number="1" values="5" ticks="46" durationTicks="69" ppq="192" velocity="0.794"/>
      <note number="2" values="5" ticks="123" durationTicks="93" ppq="192" velocity="0.724"/>
      <note number="3" values="58" ticks="209" durationTicks="96" ppq="192" velocity="0.752"/>
      <note number="4" values="79" ticks="300" durationTicks="93" ppq="192" velocity="0.706"/>
      <note number="5" values="28" ticks="405" durationTicks="91" ppq="192" velocity="0.754"/>
      <note number="6" values="18" ticks="491" durationTicks="190" ppq="192" velocity="0.694"/>
    </notes>
  </exercise>
</level>
